<mxfile modified="2022-09-10T08:52:31.781Z" host="app.diagrams.net" agent="5.0 (Windows NT 10.0; Win64; x64) AppleWebKit/537.36 (KHTML, like Gecko) Chrome/105.0.0.0 Safari/537.36" etag="gG7YIq_e6QTqZQO1dc1S" version="20.2.8" type="github">
  <diagram id="Ht1M8jgEwFfnCIfOTk4-" name="Page-1">
    <mxGraphModel dx="4340" dy="2250" grid="1" gridSize="10" guides="1" tooltips="1" connect="1" arrows="1" fold="1" page="1" pageScale="1" pageWidth="2336" pageHeight="1654" math="0" shadow="0">
      <root>
        <mxCell id="0" />
        <mxCell id="1" parent="0" />
        <mxCell id="UEzPUAAOIrF-is8g5C7q-109" value="researcher quering to KB" style="outlineConnect=0;gradientColor=none;fontColor=#545B64;strokeColor=none;fillColor=#879196;dashed=0;verticalLabelPosition=bottom;verticalAlign=top;align=center;html=1;fontSize=12;fontStyle=0;aspect=fixed;shape=mxgraph.aws4.illustration_desktop;pointerEvents=1;labelBackgroundColor=#ffffff;" parent="1" vertex="1">
          <mxGeometry x="2160" y="380" width="100" height="91" as="geometry" />
        </mxCell>
        <mxCell id="wqusIUZv3KyyTW2zH7Av-9" value="" style="edgeStyle=orthogonalEdgeStyle;rounded=0;orthogonalLoop=1;jettySize=auto;html=1;" edge="1" parent="1" source="wqusIUZv3KyyTW2zH7Av-10" target="wqusIUZv3KyyTW2zH7Av-11">
          <mxGeometry relative="1" as="geometry" />
        </mxCell>
        <mxCell id="wqusIUZv3KyyTW2zH7Av-10" value="Lambda" style="outlineConnect=0;fontColor=#232F3E;gradientColor=#F78E04;gradientDirection=north;fillColor=#D05C17;strokeColor=#ffffff;dashed=0;verticalLabelPosition=bottom;verticalAlign=top;align=center;html=1;fontSize=12;fontStyle=0;aspect=fixed;shape=mxgraph.aws4.resourceIcon;resIcon=mxgraph.aws4.lambda;labelBackgroundColor=#ffffff;spacingTop=3;" vertex="1" parent="1">
          <mxGeometry x="700" y="78" width="78" height="78" as="geometry" />
        </mxCell>
        <mxCell id="wqusIUZv3KyyTW2zH7Av-44" style="edgeStyle=orthogonalEdgeStyle;rounded=0;orthogonalLoop=1;jettySize=auto;html=1;entryX=0.5;entryY=0;entryDx=0;entryDy=0;entryPerimeter=0;" edge="1" parent="1" source="wqusIUZv3KyyTW2zH7Av-11" target="wqusIUZv3KyyTW2zH7Av-43">
          <mxGeometry relative="1" as="geometry" />
        </mxCell>
        <mxCell id="wqusIUZv3KyyTW2zH7Av-11" value="DynamoDB" style="outlineConnect=0;fontColor=#232F3E;gradientColor=#4D72F3;gradientDirection=north;fillColor=#3334B9;strokeColor=#ffffff;dashed=0;verticalLabelPosition=bottom;verticalAlign=top;align=center;html=1;fontSize=12;fontStyle=0;aspect=fixed;shape=mxgraph.aws4.resourceIcon;resIcon=mxgraph.aws4.dynamodb;labelBackgroundColor=#ffffff;spacingTop=5;" vertex="1" parent="1">
          <mxGeometry x="890.0000000000002" y="78" width="78" height="78" as="geometry" />
        </mxCell>
        <mxCell id="wqusIUZv3KyyTW2zH7Av-12" value="" style="swimlane;startSize=0;" vertex="1" parent="1">
          <mxGeometry x="630" y="50" width="390" height="130" as="geometry" />
        </mxCell>
        <mxCell id="wqusIUZv3KyyTW2zH7Av-19" value="Surveys DB" style="text;html=1;strokeColor=none;fillColor=none;align=center;verticalAlign=middle;whiteSpace=wrap;rounded=0;" vertex="1" parent="wqusIUZv3KyyTW2zH7Av-12">
          <mxGeometry x="238" width="100" height="30" as="geometry" />
        </mxCell>
        <mxCell id="wqusIUZv3KyyTW2zH7Av-13" style="edgeStyle=orthogonalEdgeStyle;rounded=0;orthogonalLoop=1;jettySize=auto;html=1;" edge="1" parent="1" source="wqusIUZv3KyyTW2zH7Av-14" target="wqusIUZv3KyyTW2zH7Av-16">
          <mxGeometry relative="1" as="geometry" />
        </mxCell>
        <mxCell id="wqusIUZv3KyyTW2zH7Av-14" value="Payment from clients" style="rounded=1;whiteSpace=wrap;html=1;fontColor=#000000;labelBackgroundColor=none;labelBorderColor=none;" vertex="1" parent="1">
          <mxGeometry x="300" y="212" width="120" height="60" as="geometry" />
        </mxCell>
        <mxCell id="wqusIUZv3KyyTW2zH7Av-15" style="edgeStyle=orthogonalEdgeStyle;rounded=0;orthogonalLoop=1;jettySize=auto;html=1;" edge="1" parent="1" source="wqusIUZv3KyyTW2zH7Av-16" target="wqusIUZv3KyyTW2zH7Av-10">
          <mxGeometry relative="1" as="geometry">
            <mxPoint x="889" y="352" as="targetPoint" />
            <Array as="points">
              <mxPoint x="730" y="283" />
            </Array>
          </mxGeometry>
        </mxCell>
        <mxCell id="wqusIUZv3KyyTW2zH7Av-16" value="Amazon API&lt;br&gt;Gateway&lt;br&gt;" style="outlineConnect=0;fontColor=#232F3E;gradientColor=#945DF2;gradientDirection=north;fillColor=#5A30B5;strokeColor=#ffffff;dashed=0;verticalLabelPosition=bottom;verticalAlign=top;align=center;html=1;fontSize=12;fontStyle=0;aspect=fixed;shape=mxgraph.aws4.resourceIcon;resIcon=mxgraph.aws4.api_gateway;labelBackgroundColor=#ffffff;" vertex="1" parent="1">
          <mxGeometry x="500" y="244" width="78" height="78" as="geometry" />
        </mxCell>
        <mxCell id="wqusIUZv3KyyTW2zH7Av-46" style="edgeStyle=orthogonalEdgeStyle;rounded=0;orthogonalLoop=1;jettySize=auto;html=1;" edge="1" parent="1" source="wqusIUZv3KyyTW2zH7Av-20" target="wqusIUZv3KyyTW2zH7Av-25">
          <mxGeometry relative="1" as="geometry" />
        </mxCell>
        <mxCell id="wqusIUZv3KyyTW2zH7Av-20" value="Mongo DB&lt;br&gt;Surveys and inner data on economic" style="strokeWidth=2;html=1;shape=mxgraph.flowchart.database;whiteSpace=wrap;fillColor=#d5e8d4;strokeColor=#82b366;" vertex="1" parent="1">
          <mxGeometry x="1300" y="60" width="60" height="60" as="geometry" />
        </mxCell>
        <mxCell id="wqusIUZv3KyyTW2zH7Av-49" value="" style="edgeStyle=orthogonalEdgeStyle;rounded=0;orthogonalLoop=1;jettySize=auto;html=1;" edge="1" parent="1" source="wqusIUZv3KyyTW2zH7Av-21" target="wqusIUZv3KyyTW2zH7Av-27">
          <mxGeometry relative="1" as="geometry" />
        </mxCell>
        <mxCell id="wqusIUZv3KyyTW2zH7Av-21" value="Redis DB&lt;br&gt;external data" style="strokeWidth=2;html=1;shape=mxgraph.flowchart.database;whiteSpace=wrap;fillColor=#ffe6cc;strokeColor=#d79b00;" vertex="1" parent="1">
          <mxGeometry x="1580" y="50" width="60" height="60" as="geometry" />
        </mxCell>
        <mxCell id="wqusIUZv3KyyTW2zH7Av-51" value="" style="edgeStyle=orthogonalEdgeStyle;rounded=0;orthogonalLoop=1;jettySize=auto;html=1;" edge="1" parent="1" source="wqusIUZv3KyyTW2zH7Av-23" target="wqusIUZv3KyyTW2zH7Av-28">
          <mxGeometry relative="1" as="geometry" />
        </mxCell>
        <mxCell id="wqusIUZv3KyyTW2zH7Av-23" value="PostgreSQL&lt;br&gt;external data" style="sketch=0;aspect=fixed;html=1;points=[];align=center;image;fontSize=12;image=img/lib/mscae/Azure_Database_for_PostgreSQL_servers.svg;" vertex="1" parent="1">
          <mxGeometry x="1810" y="50" width="38" height="50" as="geometry" />
        </mxCell>
        <mxCell id="wqusIUZv3KyyTW2zH7Av-53" value="" style="edgeStyle=orthogonalEdgeStyle;rounded=0;orthogonalLoop=1;jettySize=auto;html=1;" edge="1" parent="1" source="wqusIUZv3KyyTW2zH7Av-24" target="wqusIUZv3KyyTW2zH7Av-33">
          <mxGeometry relative="1" as="geometry" />
        </mxCell>
        <mxCell id="wqusIUZv3KyyTW2zH7Av-56" value="" style="edgeStyle=orthogonalEdgeStyle;rounded=0;orthogonalLoop=1;jettySize=auto;html=1;" edge="1" parent="1" source="wqusIUZv3KyyTW2zH7Av-24" target="wqusIUZv3KyyTW2zH7Av-35">
          <mxGeometry relative="1" as="geometry" />
        </mxCell>
        <mxCell id="wqusIUZv3KyyTW2zH7Av-24" value="Amazon Neptune&lt;br&gt;external DB" style="sketch=0;points=[[0,0,0],[0.25,0,0],[0.5,0,0],[0.75,0,0],[1,0,0],[0,1,0],[0.25,1,0],[0.5,1,0],[0.75,1,0],[1,1,0],[0,0.25,0],[0,0.5,0],[0,0.75,0],[1,0.25,0],[1,0.5,0],[1,0.75,0]];outlineConnect=0;fontColor=#232F3E;gradientColor=#4D72F3;gradientDirection=north;fillColor=#3334B9;strokeColor=#ffffff;dashed=0;verticalLabelPosition=bottom;verticalAlign=top;align=center;html=1;fontSize=12;fontStyle=0;aspect=fixed;shape=mxgraph.aws4.resourceIcon;resIcon=mxgraph.aws4.neptune;" vertex="1" parent="1">
          <mxGeometry x="2020" y="60" width="78" height="78" as="geometry" />
        </mxCell>
        <mxCell id="wqusIUZv3KyyTW2zH7Av-48" style="edgeStyle=orthogonalEdgeStyle;rounded=0;orthogonalLoop=1;jettySize=auto;html=1;entryX=0.5;entryY=1;entryDx=0;entryDy=0;" edge="1" parent="1" source="wqusIUZv3KyyTW2zH7Av-25" target="wqusIUZv3KyyTW2zH7Av-19">
          <mxGeometry relative="1" as="geometry">
            <Array as="points">
              <mxPoint x="1187" y="20" />
              <mxPoint x="918" y="20" />
            </Array>
          </mxGeometry>
        </mxCell>
        <mxCell id="wqusIUZv3KyyTW2zH7Av-25" value="Airflow" style="rounded=0;whiteSpace=wrap;html=1;fillColor=#ffe6cc;strokeColor=#d79b00;" vertex="1" parent="1">
          <mxGeometry x="1127.5" y="40" width="120" height="60" as="geometry" />
        </mxCell>
        <mxCell id="wqusIUZv3KyyTW2zH7Av-50" style="edgeStyle=orthogonalEdgeStyle;rounded=0;orthogonalLoop=1;jettySize=auto;html=1;" edge="1" parent="1" source="wqusIUZv3KyyTW2zH7Av-27" target="wqusIUZv3KyyTW2zH7Av-36">
          <mxGeometry relative="1" as="geometry">
            <Array as="points">
              <mxPoint x="1610" y="580" />
            </Array>
          </mxGeometry>
        </mxCell>
        <mxCell id="wqusIUZv3KyyTW2zH7Av-27" value="Airflow" style="rounded=0;whiteSpace=wrap;html=1;fillColor=#ffe6cc;strokeColor=#d79b00;" vertex="1" parent="1">
          <mxGeometry x="1550" y="184" width="120" height="60" as="geometry" />
        </mxCell>
        <mxCell id="wqusIUZv3KyyTW2zH7Av-52" style="edgeStyle=orthogonalEdgeStyle;rounded=0;orthogonalLoop=1;jettySize=auto;html=1;" edge="1" parent="1" source="wqusIUZv3KyyTW2zH7Av-28" target="wqusIUZv3KyyTW2zH7Av-36">
          <mxGeometry relative="1" as="geometry">
            <Array as="points">
              <mxPoint x="1840" y="599" />
            </Array>
          </mxGeometry>
        </mxCell>
        <mxCell id="wqusIUZv3KyyTW2zH7Av-28" value="Airflow" style="rounded=0;whiteSpace=wrap;html=1;fillColor=#ffe6cc;strokeColor=#d79b00;" vertex="1" parent="1">
          <mxGeometry x="1780" y="190" width="120" height="60" as="geometry" />
        </mxCell>
        <mxCell id="wqusIUZv3KyyTW2zH7Av-31" value="Amazon DMS" style="sketch=0;points=[[0,0,0],[0.25,0,0],[0.5,0,0],[0.75,0,0],[1,0,0],[0,1,0],[0.25,1,0],[0.5,1,0],[0.75,1,0],[1,1,0],[0,0.25,0],[0,0.5,0],[0,0.75,0],[1,0.25,0],[1,0.5,0],[1,0.75,0]];outlineConnect=0;fontColor=#232F3E;gradientColor=#4AB29A;gradientDirection=north;fillColor=#116D5B;strokeColor=#ffffff;dashed=0;verticalLabelPosition=bottom;verticalAlign=top;align=center;html=1;fontSize=12;fontStyle=0;aspect=fixed;shape=mxgraph.aws4.resourceIcon;resIcon=mxgraph.aws4.database_migration_service;" vertex="1" parent="1">
          <mxGeometry x="1460" y="172" width="78" height="78" as="geometry" />
        </mxCell>
        <mxCell id="wqusIUZv3KyyTW2zH7Av-32" value="Amazon DMS" style="sketch=0;points=[[0,0,0],[0.25,0,0],[0.5,0,0],[0.75,0,0],[1,0,0],[0,1,0],[0.25,1,0],[0.5,1,0],[0.75,1,0],[1,1,0],[0,0.25,0],[0,0.5,0],[0,0.75,0],[1,0.25,0],[1,0.5,0],[1,0.75,0]];outlineConnect=0;fontColor=#232F3E;gradientColor=#4AB29A;gradientDirection=north;fillColor=#116D5B;strokeColor=#ffffff;dashed=0;verticalLabelPosition=bottom;verticalAlign=top;align=center;html=1;fontSize=12;fontStyle=0;aspect=fixed;shape=mxgraph.aws4.resourceIcon;resIcon=mxgraph.aws4.database_migration_service;" vertex="1" parent="1">
          <mxGeometry x="1702" y="166" width="78" height="78" as="geometry" />
        </mxCell>
        <mxCell id="wqusIUZv3KyyTW2zH7Av-55" style="edgeStyle=orthogonalEdgeStyle;rounded=0;orthogonalLoop=1;jettySize=auto;html=1;" edge="1" parent="1" source="wqusIUZv3KyyTW2zH7Av-33" target="wqusIUZv3KyyTW2zH7Av-36">
          <mxGeometry relative="1" as="geometry">
            <Array as="points">
              <mxPoint x="2049" y="630" />
            </Array>
          </mxGeometry>
        </mxCell>
        <mxCell id="wqusIUZv3KyyTW2zH7Av-33" value="Amazon Gkue" style="sketch=0;points=[[0,0,0],[0.25,0,0],[0.5,0,0],[0.75,0,0],[1,0,0],[0,1,0],[0.25,1,0],[0.5,1,0],[0.75,1,0],[1,1,0],[0,0.25,0],[0,0.5,0],[0,0.75,0],[1,0.25,0],[1,0.5,0],[1,0.75,0]];outlineConnect=0;fontColor=#232F3E;gradientColor=#945DF2;gradientDirection=north;fillColor=#5A30B5;strokeColor=#ffffff;dashed=0;verticalLabelPosition=bottom;verticalAlign=top;align=center;html=1;fontSize=12;fontStyle=0;aspect=fixed;shape=mxgraph.aws4.resourceIcon;resIcon=mxgraph.aws4.glue;" vertex="1" parent="1">
          <mxGeometry x="2010" y="212" width="78" height="78" as="geometry" />
        </mxCell>
        <mxCell id="wqusIUZv3KyyTW2zH7Av-58" value="" style="edgeStyle=orthogonalEdgeStyle;rounded=0;orthogonalLoop=1;jettySize=auto;html=1;" edge="1" parent="1" source="wqusIUZv3KyyTW2zH7Av-34" target="UEzPUAAOIrF-is8g5C7q-109">
          <mxGeometry relative="1" as="geometry" />
        </mxCell>
        <mxCell id="wqusIUZv3KyyTW2zH7Av-34" value="Amazon API&lt;br&gt;Gateway&lt;br&gt;" style="outlineConnect=0;fontColor=#232F3E;gradientColor=#945DF2;gradientDirection=north;fillColor=#5A30B5;strokeColor=#ffffff;dashed=0;verticalLabelPosition=bottom;verticalAlign=top;align=center;html=1;fontSize=12;fontStyle=0;aspect=fixed;shape=mxgraph.aws4.resourceIcon;resIcon=mxgraph.aws4.api_gateway;labelBackgroundColor=#ffffff;" vertex="1" parent="1">
          <mxGeometry x="2182" y="212" width="78" height="78" as="geometry" />
        </mxCell>
        <mxCell id="wqusIUZv3KyyTW2zH7Av-57" value="" style="edgeStyle=orthogonalEdgeStyle;rounded=0;orthogonalLoop=1;jettySize=auto;html=1;" edge="1" parent="1" source="wqusIUZv3KyyTW2zH7Av-35" target="wqusIUZv3KyyTW2zH7Av-34">
          <mxGeometry relative="1" as="geometry" />
        </mxCell>
        <mxCell id="wqusIUZv3KyyTW2zH7Av-35" value="Amazon Lambda" style="sketch=0;points=[[0,0,0],[0.25,0,0],[0.5,0,0],[0.75,0,0],[1,0,0],[0,1,0],[0.25,1,0],[0.5,1,0],[0.75,1,0],[1,1,0],[0,0.25,0],[0,0.5,0],[0,0.75,0],[1,0.25,0],[1,0.5,0],[1,0.75,0]];outlineConnect=0;fontColor=#232F3E;gradientColor=#F78E04;gradientDirection=north;fillColor=#D05C17;strokeColor=#ffffff;dashed=0;verticalLabelPosition=bottom;verticalAlign=top;align=center;html=1;fontSize=12;fontStyle=0;aspect=fixed;shape=mxgraph.aws4.resourceIcon;resIcon=mxgraph.aws4.lambda;" vertex="1" parent="1">
          <mxGeometry x="2182" y="70" width="78" height="78" as="geometry" />
        </mxCell>
        <mxCell id="wqusIUZv3KyyTW2zH7Av-65" style="edgeStyle=orthogonalEdgeStyle;rounded=0;orthogonalLoop=1;jettySize=auto;html=1;entryX=0.5;entryY=0;entryDx=0;entryDy=0;entryPerimeter=0;" edge="1" parent="1" source="wqusIUZv3KyyTW2zH7Av-36" target="wqusIUZv3KyyTW2zH7Av-64">
          <mxGeometry relative="1" as="geometry" />
        </mxCell>
        <mxCell id="wqusIUZv3KyyTW2zH7Av-36" value="S3" style="sketch=0;outlineConnect=0;fontColor=#232F3E;gradientColor=none;fillColor=#3F8624;strokeColor=none;dashed=0;verticalLabelPosition=bottom;verticalAlign=top;align=center;html=1;fontSize=12;fontStyle=0;aspect=fixed;pointerEvents=1;shape=mxgraph.aws4.bucket;" vertex="1" parent="1">
          <mxGeometry x="1150" y="560" width="75" height="78" as="geometry" />
        </mxCell>
        <mxCell id="wqusIUZv3KyyTW2zH7Av-40" style="edgeStyle=orthogonalEdgeStyle;rounded=0;orthogonalLoop=1;jettySize=auto;html=1;" edge="1" parent="1" source="wqusIUZv3KyyTW2zH7Av-37" target="wqusIUZv3KyyTW2zH7Av-38">
          <mxGeometry relative="1" as="geometry" />
        </mxCell>
        <mxCell id="wqusIUZv3KyyTW2zH7Av-37" value="researcher quering to surveys&lt;br&gt;and internal information through their platform" style="outlineConnect=0;gradientColor=none;fontColor=#545B64;strokeColor=none;fillColor=#879196;dashed=0;verticalLabelPosition=bottom;verticalAlign=top;align=center;html=1;fontSize=12;fontStyle=0;aspect=fixed;shape=mxgraph.aws4.illustration_desktop;pointerEvents=1;labelBackgroundColor=#ffffff;" vertex="1" parent="1">
          <mxGeometry x="460" y="450" width="100" height="91" as="geometry" />
        </mxCell>
        <mxCell id="wqusIUZv3KyyTW2zH7Av-41" style="edgeStyle=orthogonalEdgeStyle;rounded=0;orthogonalLoop=1;jettySize=auto;html=1;" edge="1" parent="1" source="wqusIUZv3KyyTW2zH7Av-38" target="wqusIUZv3KyyTW2zH7Av-39">
          <mxGeometry relative="1" as="geometry" />
        </mxCell>
        <mxCell id="wqusIUZv3KyyTW2zH7Av-38" value="Amazon API&lt;br&gt;Gateway&lt;br&gt;" style="outlineConnect=0;fontColor=#232F3E;gradientColor=#945DF2;gradientDirection=north;fillColor=#5A30B5;strokeColor=#ffffff;dashed=0;verticalLabelPosition=bottom;verticalAlign=top;align=center;html=1;fontSize=12;fontStyle=0;aspect=fixed;shape=mxgraph.aws4.resourceIcon;resIcon=mxgraph.aws4.api_gateway;labelBackgroundColor=#ffffff;" vertex="1" parent="1">
          <mxGeometry x="690" y="450" width="78" height="78" as="geometry" />
        </mxCell>
        <mxCell id="wqusIUZv3KyyTW2zH7Av-42" style="edgeStyle=orthogonalEdgeStyle;rounded=0;orthogonalLoop=1;jettySize=auto;html=1;" edge="1" parent="1" source="wqusIUZv3KyyTW2zH7Av-39" target="wqusIUZv3KyyTW2zH7Av-11">
          <mxGeometry relative="1" as="geometry" />
        </mxCell>
        <mxCell id="wqusIUZv3KyyTW2zH7Av-39" value="Lambda" style="outlineConnect=0;fontColor=#232F3E;gradientColor=#F78E04;gradientDirection=north;fillColor=#D05C17;strokeColor=#ffffff;dashed=0;verticalLabelPosition=bottom;verticalAlign=top;align=center;html=1;fontSize=12;fontStyle=0;aspect=fixed;shape=mxgraph.aws4.resourceIcon;resIcon=mxgraph.aws4.lambda;labelBackgroundColor=#ffffff;spacingTop=3;" vertex="1" parent="1">
          <mxGeometry x="880" y="450" width="78" height="78" as="geometry" />
        </mxCell>
        <mxCell id="wqusIUZv3KyyTW2zH7Av-45" style="edgeStyle=orthogonalEdgeStyle;rounded=0;orthogonalLoop=1;jettySize=auto;html=1;" edge="1" parent="1" source="wqusIUZv3KyyTW2zH7Av-43" target="wqusIUZv3KyyTW2zH7Av-36">
          <mxGeometry relative="1" as="geometry" />
        </mxCell>
        <mxCell id="wqusIUZv3KyyTW2zH7Av-43" value="Amazon Kinesis" style="sketch=0;points=[[0,0,0],[0.25,0,0],[0.5,0,0],[0.75,0,0],[1,0,0],[0,1,0],[0.25,1,0],[0.5,1,0],[0.75,1,0],[1,1,0],[0,0.25,0],[0,0.5,0],[0,0.75,0],[1,0.25,0],[1,0.5,0],[1,0.75,0]];outlineConnect=0;fontColor=#232F3E;gradientColor=#945DF2;gradientDirection=north;fillColor=#5A30B5;strokeColor=#ffffff;dashed=0;verticalLabelPosition=bottom;verticalAlign=top;align=center;html=1;fontSize=12;fontStyle=0;aspect=fixed;shape=mxgraph.aws4.resourceIcon;resIcon=mxgraph.aws4.kinesis;" vertex="1" parent="1">
          <mxGeometry x="1120" y="172" width="78" height="78" as="geometry" />
        </mxCell>
        <mxCell id="wqusIUZv3KyyTW2zH7Av-54" value="???????????????????????????" style="text;html=1;align=center;verticalAlign=middle;resizable=0;points=[];autosize=1;strokeColor=none;fillColor=none;" vertex="1" parent="1">
          <mxGeometry x="1890" y="335" width="200" height="30" as="geometry" />
        </mxCell>
        <mxCell id="wqusIUZv3KyyTW2zH7Av-62" value="" style="edgeStyle=orthogonalEdgeStyle;rounded=0;orthogonalLoop=1;jettySize=auto;html=1;" edge="1" parent="1" source="wqusIUZv3KyyTW2zH7Av-60" target="wqusIUZv3KyyTW2zH7Av-61">
          <mxGeometry relative="1" as="geometry" />
        </mxCell>
        <mxCell id="wqusIUZv3KyyTW2zH7Av-60" value="Hadoop" style="rounded=0;whiteSpace=wrap;html=1;fillColor=#f5f5f5;fontColor=#333333;strokeColor=#666666;" vertex="1" parent="1">
          <mxGeometry x="2140" y="750.5" width="120" height="60" as="geometry" />
        </mxCell>
        <mxCell id="wqusIUZv3KyyTW2zH7Av-63" style="edgeStyle=orthogonalEdgeStyle;rounded=0;orthogonalLoop=1;jettySize=auto;html=1;" edge="1" parent="1" source="wqusIUZv3KyyTW2zH7Av-61" target="wqusIUZv3KyyTW2zH7Av-36">
          <mxGeometry relative="1" as="geometry" />
        </mxCell>
        <mxCell id="wqusIUZv3KyyTW2zH7Av-61" value="Airflow" style="rounded=0;whiteSpace=wrap;html=1;fillColor=#ffe6cc;strokeColor=#d79b00;" vertex="1" parent="1">
          <mxGeometry x="1940" y="750.5" width="120" height="60" as="geometry" />
        </mxCell>
        <mxCell id="wqusIUZv3KyyTW2zH7Av-69" style="edgeStyle=orthogonalEdgeStyle;rounded=0;orthogonalLoop=1;jettySize=auto;html=1;" edge="1" parent="1" source="wqusIUZv3KyyTW2zH7Av-64" target="wqusIUZv3KyyTW2zH7Av-66">
          <mxGeometry relative="1" as="geometry" />
        </mxCell>
        <mxCell id="wqusIUZv3KyyTW2zH7Av-64" value="Amazon Gkue" style="sketch=0;points=[[0,0,0],[0.25,0,0],[0.5,0,0],[0.75,0,0],[1,0,0],[0,1,0],[0.25,1,0],[0.5,1,0],[0.75,1,0],[1,1,0],[0,0.25,0],[0,0.5,0],[0,0.75,0],[1,0.25,0],[1,0.5,0],[1,0.75,0]];outlineConnect=0;fontColor=#232F3E;gradientColor=#945DF2;gradientDirection=north;fillColor=#5A30B5;strokeColor=#ffffff;dashed=0;verticalLabelPosition=bottom;verticalAlign=top;align=center;html=1;fontSize=12;fontStyle=0;aspect=fixed;shape=mxgraph.aws4.resourceIcon;resIcon=mxgraph.aws4.glue;" vertex="1" parent="1">
          <mxGeometry x="980" y="910" width="78" height="78" as="geometry" />
        </mxCell>
        <mxCell id="wqusIUZv3KyyTW2zH7Av-70" style="edgeStyle=orthogonalEdgeStyle;rounded=0;orthogonalLoop=1;jettySize=auto;html=1;" edge="1" parent="1" source="wqusIUZv3KyyTW2zH7Av-66" target="wqusIUZv3KyyTW2zH7Av-72">
          <mxGeometry relative="1" as="geometry">
            <mxPoint x="1240" y="1134" as="targetPoint" />
          </mxGeometry>
        </mxCell>
        <mxCell id="wqusIUZv3KyyTW2zH7Av-66" value="Databricks (Pyspark)" style="sketch=0;aspect=fixed;html=1;points=[];align=center;image;fontSize=12;image=img/lib/mscae/Databricks.svg;" vertex="1" parent="1">
          <mxGeometry x="972.12" y="1080" width="93.75" height="90" as="geometry" />
        </mxCell>
        <mxCell id="wqusIUZv3KyyTW2zH7Av-76" style="edgeStyle=orthogonalEdgeStyle;rounded=0;orthogonalLoop=1;jettySize=auto;html=1;entryX=0.5;entryY=1;entryDx=0;entryDy=0;entryPerimeter=0;" edge="1" parent="1" source="wqusIUZv3KyyTW2zH7Av-71" target="wqusIUZv3KyyTW2zH7Av-73">
          <mxGeometry relative="1" as="geometry" />
        </mxCell>
        <mxCell id="wqusIUZv3KyyTW2zH7Av-71" value="Databricks (Pyspark)" style="sketch=0;aspect=fixed;html=1;points=[];align=center;image;fontSize=12;image=img/lib/mscae/Databricks.svg;" vertex="1" parent="1">
          <mxGeometry x="1440" y="1108" width="93.75" height="90" as="geometry" />
        </mxCell>
        <mxCell id="wqusIUZv3KyyTW2zH7Av-75" style="edgeStyle=orthogonalEdgeStyle;rounded=0;orthogonalLoop=1;jettySize=auto;html=1;" edge="1" parent="1" source="wqusIUZv3KyyTW2zH7Av-72" target="wqusIUZv3KyyTW2zH7Av-71">
          <mxGeometry relative="1" as="geometry" />
        </mxCell>
        <mxCell id="wqusIUZv3KyyTW2zH7Av-72" value="Redshift" style="outlineConnect=0;dashed=0;verticalLabelPosition=bottom;verticalAlign=top;align=center;html=1;shape=mxgraph.aws3.redshift;fillColor=#2E73B8;gradientColor=none;" vertex="1" parent="1">
          <mxGeometry x="1280" y="1095" width="67.5" height="75" as="geometry" />
        </mxCell>
        <mxCell id="wqusIUZv3KyyTW2zH7Av-78" style="edgeStyle=orthogonalEdgeStyle;rounded=0;orthogonalLoop=1;jettySize=auto;html=1;" edge="1" parent="1" source="wqusIUZv3KyyTW2zH7Av-73" target="wqusIUZv3KyyTW2zH7Av-77">
          <mxGeometry relative="1" as="geometry" />
        </mxCell>
        <mxCell id="wqusIUZv3KyyTW2zH7Av-73" value="Data marts &lt;br&gt;Redshift" style="outlineConnect=0;dashed=0;verticalLabelPosition=bottom;verticalAlign=top;align=center;html=1;shape=mxgraph.aws3.redshift;fillColor=#2E73B8;gradientColor=none;" vertex="1" parent="1">
          <mxGeometry x="1720" y="1087.5" width="67.5" height="75" as="geometry" />
        </mxCell>
        <mxCell id="wqusIUZv3KyyTW2zH7Av-77" value="Tableau&lt;br&gt;Dashboards" style="shape=image;html=1;verticalAlign=top;verticalLabelPosition=bottom;labelBackgroundColor=#ffffff;imageAspect=0;aspect=fixed;image=https://cdn1.iconfinder.com/data/icons/ionicons-fill-vol-2/512/logo-tableau-128.png" vertex="1" parent="1">
          <mxGeometry x="1940" y="1061" width="128" height="128" as="geometry" />
        </mxCell>
      </root>
    </mxGraphModel>
  </diagram>
</mxfile>
